<svg width="64" height="64" viewBox="0 0 64 64" fill="none" xmlns="http://www.w3.org/2000/svg">
<path d="M32 14C28.4399 14 24.9598 15.0557 21.9997 17.0335C19.0397 19.0114 16.7326 21.8226 15.3702 25.1117C14.0078 28.4008 13.6513 32.02 14.3459 35.5116C15.0404 39.0033 16.7547 42.2106 19.2721 44.7279C21.7894 47.2453 24.9967 48.9596 28.4884 49.6541C31.98 50.3487 35.5992 49.9922 38.8883 48.6298C42.1774 47.2675 44.9886 44.9603 46.9665 42.0003C48.9443 39.0402 50 35.5601 50 32C49.9944 27.2278 48.0962 22.6527 44.7218 19.2782C41.3473 15.9038 36.7722 14.0056 32 14ZM32 40C30.4178 40 28.871 39.5308 27.5554 38.6518C26.2399 37.7727 25.2145 36.5233 24.609 35.0615C24.0035 33.5997 23.845 31.9911 24.1537 30.4393C24.4624 28.8874 25.2243 27.462 26.3432 26.3431C27.462 25.2243 28.8874 24.4624 30.4393 24.1537C31.9911 23.845 33.5997 24.0035 35.0615 24.609C36.5233 25.2145 37.7727 26.2398 38.6518 27.5554C39.5308 28.871 40 30.4177 40 32C39.9976 34.121 39.154 36.1544 37.6542 37.6542C36.1545 39.154 34.121 39.9976 32 40Z" fill="white"/>
<path d="M32 38C35.3137 38 38 35.3137 38 32C38 28.6863 35.3137 26 32 26C28.6863 26 26 28.6863 26 32C26 35.3137 28.6863 38 32 38Z" fill="white"/>
<path d="M32 2C26.0666 2 20.2664 3.75947 15.3329 7.05591C10.3994 10.3524 6.55426 15.0377 4.28363 20.5195C2.013 26.0013 1.4189 32.0333 2.57646 37.8527C3.73401 43.6721 6.59123 49.0176 10.7868 53.2132C14.9824 57.4088 20.3279 60.266 26.1473 61.4236C31.9667 62.5811 37.9987 61.987 43.4805 59.7164C48.9623 57.4458 53.6477 53.6006 56.9441 48.6671C60.2405 43.7336 62 37.9334 62 32C61.991 24.0463 58.8274 16.4209 53.2033 10.7967C47.5791 5.17259 39.9537 2.009 32 2ZM32 52C28.0444 52 24.1776 50.827 20.8886 48.6294C17.5996 46.4318 15.0362 43.3082 13.5224 39.6537C12.0087 35.9991 11.6126 31.9778 12.3843 28.0982C13.156 24.2186 15.0608 20.6549 17.8579 17.8579C20.6549 15.0608 24.2186 13.156 28.0982 12.3843C31.9778 11.6126 35.9992 12.0087 39.6537 13.5224C43.3082 15.0362 46.4318 17.5996 48.6294 20.8886C50.827 24.1776 52 28.0444 52 32C51.9939 37.3025 49.8848 42.386 46.1354 46.1354C42.386 49.8848 37.3025 51.9939 32 52Z" fill="white"/>
</svg>
