<svg width="46" height="46" viewBox="0 0 46 46" fill="none" xmlns="http://www.w3.org/2000/svg">
<g clip-path="url(#clip0_106_533)">
<path d="M8.98218 23C8.98218 30.9264 15.4308 37.375 23.3572 37.375C25.7118 37.375 27.9773 36.8072 30.0056 35.7463L27.8479 33.5886C26.4449 34.1837 24.9269 34.5 23.3572 34.5C17.0164 34.5 11.8572 29.3408 11.8572 23C11.8572 16.6592 17.0164 11.5 23.3572 11.5C24.9226 11.5 26.4421 11.8177 27.8451 12.4128L30.0027 10.2551C27.9716 9.19281 25.7075 8.625 23.3572 8.625C15.4308 8.625 8.98218 15.0736 8.98218 23Z" fill="black"/>
<path d="M23.3572 0C10.6756 0 0.357178 10.3184 0.357178 23C0.357178 35.6816 10.6756 46 23.3572 46C36.0388 46 46.3572 35.6816 46.3572 23C46.3572 10.3184 36.0388 0 23.3572 0ZM26.2595 18.0651C25.4042 17.5591 24.4209 17.25 23.3572 17.25C20.1861 17.25 17.6072 19.8289 17.6072 23C17.6072 26.1711 20.1861 28.75 23.3572 28.75C24.4209 28.75 25.4042 28.4409 26.2595 27.9349L36.5161 38.1915C32.9841 41.2563 28.3899 43.125 23.3572 43.125C12.2597 43.125 3.23218 34.0975 3.23218 23C3.23218 11.9025 12.2597 2.875 23.3572 2.875C28.3899 2.875 32.9841 4.74375 36.5161 7.8085L26.2595 18.0651Z" fill="black"/>
</g>
<defs>
<clipPath id="clip0_106_533">
<rect width="46" height="46" fill="white"/>
</clipPath>
</defs>
</svg>
