<svg width="46" height="46" viewBox="0 0 46 46" fill="none" xmlns="http://www.w3.org/2000/svg">
<path d="M17.25 2.875H4.79167C4.28333 2.875 3.79582 3.07693 3.43638 3.43638C3.07693 3.79582 2.875 4.28333 2.875 4.79167V17.25C2.875 17.7583 3.07693 18.2458 3.43638 18.6053C3.79582 18.9647 4.28333 19.1667 4.79167 19.1667H17.25C17.7583 19.1667 18.2458 18.9647 18.6053 18.6053C18.9647 18.2458 19.1667 17.7583 19.1667 17.25V4.79167C19.1667 4.28333 18.9647 3.79582 18.6053 3.43638C18.2458 3.07693 17.7583 2.875 17.25 2.875Z" fill="black"/>
<path d="M28.7502 43.1252H41.2085C41.7168 43.1252 42.2043 42.9232 42.5638 42.5638C42.9232 42.2043 43.1252 41.7168 43.1252 41.2085V28.7502C43.1252 28.2418 42.9232 27.7543 42.5638 27.3949C42.2043 27.0354 41.7168 26.8335 41.2085 26.8335H28.7502C28.2418 26.8335 27.7543 27.0354 27.3949 27.3949C27.0354 27.7543 26.8335 28.2418 26.8335 28.7502V41.2085C26.8335 41.7168 27.0354 42.2043 27.3949 42.5638C27.7543 42.9232 28.2418 43.1252 28.7502 43.1252Z" fill="black"/>
<path d="M17.25 26.8335H4.79167C4.28333 26.8335 3.79582 27.0354 3.43638 27.3949C3.07693 27.7543 2.875 28.2418 2.875 28.7502V41.2085C2.875 41.7168 3.07693 42.2043 3.43638 42.5638C3.79582 42.9232 4.28333 43.1252 4.79167 43.1252H17.25C17.7583 43.1252 18.2458 42.9232 18.6053 42.5638C18.9647 42.2043 19.1667 41.7168 19.1667 41.2085V28.7502C19.1667 28.2418 18.9647 27.7543 18.6053 27.3949C18.2458 27.0354 17.7583 26.8335 17.25 26.8335Z" fill="black"/>
<path d="M32.0159 14.6491L27.3124 9.94658L25.2798 11.9792L31.0873 17.7877C31.2208 17.9211 31.3794 18.027 31.5538 18.0992C31.7283 18.1713 31.9153 18.2085 32.1041 18.2084H32.1635C32.3623 18.1998 32.5572 18.1502 32.7359 18.0628C32.9147 17.9754 33.0735 17.8521 33.2023 17.7005L44.6717 4.14387L42.4771 2.28662L32.0159 14.6491Z" fill="black"/>
</svg>
