<svg width="64" height="64" viewBox="0 0 64 64" fill="none" xmlns="http://www.w3.org/2000/svg">
<path d="M13 52.9829H51C52.0609 52.9829 53.0783 53.4043 53.8284 54.1545C54.5786 54.9046 55 55.922 55 56.9829V61.9829C55 62.2481 54.8946 62.5025 54.7071 62.69C54.5196 62.8776 54.2652 62.9829 54 62.9829H10C9.73478 62.9829 9.48043 62.8776 9.29289 62.69C9.10536 62.5025 9 62.2481 9 61.9829V56.9829C9 55.922 9.42143 54.9046 10.1716 54.1545C10.9217 53.4043 11.9391 52.9829 13 52.9829Z" fill="#2D3C90"/>
<path d="M52 30.9829C52.0315 23.196 49.0214 15.7045 43.611 10.1041C38.2006 4.5037 30.8174 1.23704 23.034 0.999915C22.8998 0.994188 22.7658 1.01609 22.6404 1.06425C22.515 1.11241 22.4009 1.18582 22.305 1.27992C22.2094 1.37359 22.1336 1.48549 22.0821 1.609C22.0306 1.7325 22.0043 1.86509 22.005 1.99892V5.98292L11.5 17.4319C11.3543 17.5907 11.2638 17.7924 11.2419 18.0068C11.2201 18.2213 11.2682 18.437 11.379 18.6219L13.579 22.2939C13.696 22.4894 13.8762 22.6391 14.0899 22.7183C14.3036 22.7974 14.5379 22.8011 14.754 22.7289L26 18.9829C27.2858 21.0932 27.9768 23.5119 28 25.9829C28 29.5069 25.6 32.3589 23.062 35.3829C20.6 38.2999 17.9 41.5359 16.67 45.9829C16.2217 47.6116 15.9963 49.2936 16 50.9829H44.316C45.6938 49.4443 46.9108 47.769 47.948 45.9829C50.598 41.4278 51.996 36.2528 52 30.9829ZM43.271 47.5999C43.1024 47.7924 42.8664 47.9129 42.6116 47.9366C42.3569 47.9604 42.1027 47.8855 41.9014 47.7276C41.7002 47.5696 41.5671 47.3405 41.5296 47.0874C41.4921 46.8343 41.5531 46.5764 41.7 46.3669C45.1506 41.9831 47.0183 36.5618 47 30.9829C47.0049 24.8512 44.7539 18.9321 40.6757 14.3532C36.5975 9.77435 30.9773 6.85589 24.886 6.15392C24.7547 6.14344 24.6269 6.10715 24.5097 6.04714C24.3925 5.98712 24.2883 5.90456 24.2031 5.80418C24.118 5.70381 24.0534 5.5876 24.0133 5.46223C23.9731 5.33685 23.9581 5.20478 23.9691 5.07359C23.98 4.94239 24.0168 4.81466 24.0773 4.69772C24.1378 4.58078 24.2208 4.47693 24.3215 4.39214C24.4222 4.30734 24.5386 4.24326 24.6642 4.20359C24.7897 4.16391 24.9218 4.14941 25.053 4.16092L25.114 4.16792C31.6931 4.92542 37.7635 8.07703 42.1685 13.0222C46.5735 17.9673 49.0051 24.3603 49 30.9829C49.0205 37.0098 47.0014 42.8663 43.271 47.5999Z" fill="#2D3C90"/>
</svg>
