<svg width="142" height="62" viewBox="0 0 142 62" fill="none" xmlns="http://www.w3.org/2000/svg">
<g clip-path="url(#clip0_1572_682)">
<path d="M22.6611 46.4756H23.5316V50.9325C23.5316 52.699 22.6433 53.2441 21.4864 53.2441C21.1696 53.2429 20.8551 53.1896 20.556 53.0865L20.6848 52.3838C20.9191 52.4701 21.1674 52.5139 21.4176 52.5129C22.1992 52.5129 22.6611 52.1671 22.6611 50.8624V46.4756Z" fill="black"/>
<path d="M27.6419 53.1342L27.5708 52.5322H27.542C27.3695 52.7581 27.145 52.9403 26.8872 53.064C26.6293 53.1877 26.3453 53.2493 26.0586 53.2437C25.0749 53.2437 24.5753 52.5607 24.5753 51.869C24.5753 50.7131 25.6167 50.0805 27.4909 50.0915V49.993C27.4909 49.5967 27.3821 48.8853 26.3806 48.8853C25.934 48.8862 25.4964 49.0097 25.1171 49.2421L24.9172 48.6686C25.3975 48.3837 25.9489 48.2366 26.5094 48.2439C27.9927 48.2439 28.3547 49.2421 28.3547 50.2009V51.9894C28.3483 52.3725 28.3751 52.7555 28.4346 53.1342H27.6419ZM27.5109 50.6934C26.5494 50.6737 25.4568 50.8423 25.4568 51.7704C25.4476 51.881 25.4627 51.9921 25.5011 52.0963C25.5396 52.2006 25.6004 52.2953 25.6796 52.3741C25.7587 52.453 25.8542 52.514 25.9594 52.553C26.0647 52.592 26.1774 52.608 26.2895 52.6001C26.5458 52.607 26.7975 52.5333 27.0084 52.3897C27.2192 52.246 27.3781 52.0398 27.462 51.8011C27.4922 51.7113 27.5087 51.6176 27.5109 51.5231V50.6934Z" fill="black"/>
<path d="M29.7848 49.6494C29.7848 49.1546 29.7736 48.7497 29.7448 48.3556H30.5264L30.5775 49.1459H30.5953C30.7544 48.8661 30.9881 48.6344 31.271 48.4758C31.5539 48.3173 31.8754 48.2379 32.2008 48.2462C32.8669 48.2462 33.915 48.6402 33.915 50.282V53.1277H33.0268V50.3783C33.0268 49.6078 32.7381 48.9642 31.9054 48.9642C31.5675 48.9773 31.2482 49.1202 31.0158 49.3624C30.7834 49.6046 30.6564 49.9268 30.6619 50.2601V53.1343H29.7737L29.7848 49.6494Z" fill="black"/>
<path d="M38.0365 53.1342L37.9654 52.5322H37.9366C37.764 52.7581 37.5396 52.9403 37.2818 53.064C37.0239 53.1877 36.7399 53.2493 36.4532 53.2437C35.4695 53.2437 34.9698 52.5607 34.9698 51.869C34.9698 50.7131 36.0113 50.0805 37.8855 50.0915V49.993C37.8855 49.5967 37.7745 48.8853 36.7752 48.8853C36.3293 48.8862 35.8924 49.0098 35.5139 49.2421L35.314 48.6686C35.7943 48.3837 36.3457 48.2366 36.9062 48.2439C38.3896 48.2439 38.7515 49.2421 38.7515 50.2009V51.9894C38.7451 52.3725 38.7719 52.7555 38.8314 53.1342H38.0365ZM37.9055 50.6934C36.944 50.6737 35.8514 50.8423 35.8514 51.7704C35.8422 51.8808 35.8573 51.9917 35.8956 52.0958C35.9339 52.1998 35.9946 52.2945 36.0734 52.3732C36.1523 52.452 36.2475 52.5131 36.3525 52.5522C36.4575 52.5914 36.5699 52.6077 36.6819 52.6001C36.9382 52.6074 37.1901 52.5338 37.401 52.3901C37.6119 52.2464 37.7708 52.04 37.8544 51.8011C37.8863 51.7117 37.9036 51.6178 37.9055 51.5231V50.6934Z" fill="black"/>
<path d="M44.3496 50.1421V50.7835H41.8759V50.1421H44.3496Z" fill="black"/>
<path d="M47.5495 53.1346V46.4756H48.5021L50.6583 49.8445C51.1091 50.5398 51.5141 51.263 51.8707 52.0095H51.8907C51.8108 51.1207 51.7908 50.3108 51.7908 49.2732V46.4756H52.6124V53.1346H51.7242L49.5791 49.7548C49.1119 49.0405 48.6899 48.2985 48.3156 47.5329H48.2845C48.3356 48.3735 48.3556 49.1747 48.3556 50.2801V53.1259L47.5495 53.1346Z" fill="black"/>
<path d="M54.1335 46.5649C54.7471 46.4718 55.3669 46.425 55.9877 46.4248C57.2401 46.4248 58.1328 46.7116 58.7235 47.2566C59.3142 47.8017 59.6761 48.5701 59.6761 49.6471C59.6761 50.7241 59.3363 51.6172 58.7035 52.2345C58.0706 52.8518 57.0292 53.1933 55.7168 53.1933C55.1879 53.1968 54.6593 53.1705 54.1335 53.1145V46.5649ZM55.0062 52.4534C55.3005 52.493 55.5975 52.5091 55.8944 52.5016C57.7575 52.5016 58.7812 51.4749 58.7812 49.6755C58.7812 48.106 57.893 47.1078 56.0454 47.1078C55.7028 47.1027 55.3605 47.132 55.024 47.1953L55.0062 52.4534Z" fill="black"/>
<path d="M64.306 50.0131H61.6813V52.421H64.608V53.1412H60.8086V46.4756H64.457V47.1958H61.6813V49.3016H64.306V50.0131Z" fill="black"/>
<path d="M73.6392 49.7348C73.6392 52.029 72.2247 53.2373 70.5015 53.2373C68.725 53.2373 67.4637 51.8735 67.4637 49.8574C67.4637 47.7428 68.7961 46.355 70.6014 46.355C72.4445 46.3659 73.6392 47.7603 73.6392 49.7348ZM68.3964 49.8443C68.3964 51.2672 69.178 52.5412 70.5503 52.5412C71.9227 52.5412 72.7154 51.2869 72.7154 49.7764C72.7154 48.4521 72.0137 47.0686 70.5614 47.0686C69.1092 47.0686 68.3964 48.382 68.3964 49.8443Z" fill="black"/>
<path d="M77.8983 53.1343V49.0146H75.8642V53.1343H74.9915V49.0146H74.3098V48.3579H74.9915V48.1981C74.9915 47.526 75.1514 46.9437 75.5333 46.5694C75.6962 46.4187 75.8885 46.3022 76.0984 46.227C76.3084 46.1517 76.5316 46.1193 76.7547 46.1316C76.9956 46.1334 77.2327 46.1903 77.4475 46.298L77.2676 46.9416C77.1044 46.8651 76.9264 46.824 76.7458 46.8211C76.0552 46.8211 75.8575 47.4056 75.8575 48.1565V48.3644H77.8916V48.1455C77.8916 47.4735 78.0515 46.8606 78.4623 46.4753C78.781 46.1854 79.2012 46.0284 79.6348 46.0375C79.8924 46.0352 80.148 46.082 80.3875 46.1754L80.2765 46.8474C80.0964 46.771 79.9018 46.7337 79.7058 46.738C78.9641 46.738 78.7643 47.3947 78.7643 48.1214V48.3797H79.9368V49.0365H78.7732V53.1562L77.8983 53.1343Z" fill="black"/>
<path d="M80.5341 52.2458C80.8837 52.4614 81.2855 52.5808 81.6977 52.5917C82.3394 52.5917 82.6392 52.2743 82.6392 51.8803C82.6392 51.4862 82.3883 51.2367 81.7377 51.0046C80.865 50.6982 80.4542 50.2253 80.4542 49.6518C80.4542 48.8813 81.087 48.2486 82.1285 48.2486C82.5451 48.2446 82.9558 48.3464 83.3209 48.5442L83.0989 49.1768C82.8002 48.9962 82.4566 48.9008 82.1063 48.901C81.5844 48.901 81.2936 49.1965 81.2936 49.5577C81.2936 49.9517 81.5844 50.129 82.2173 50.3676C83.0589 50.6829 83.4897 51.0988 83.4897 51.8102C83.4897 52.6486 82.8235 53.2418 81.6755 53.2418C81.2 53.2512 80.7303 53.1388 80.312 52.9157L80.5341 52.2458Z" fill="black"/>
<path d="M84.6333 46.1206H85.5215V49.1043C85.6707 48.846 85.8898 48.6337 86.1544 48.4913C86.4277 48.3322 86.7386 48.2469 87.056 48.244C87.7066 48.244 88.7503 48.638 88.7503 50.2885V53.1342H87.862V50.387C87.862 49.6165 87.5712 48.9642 86.7406 48.9642C86.4753 48.9699 86.2184 49.0575 86.0061 49.2145C85.7939 49.3716 85.6368 49.5902 85.5571 49.8398C85.5096 49.9724 85.4892 50.113 85.4971 50.2535V53.1386H84.6089L84.6333 46.1206Z" fill="black"/>
<path d="M94.5771 50.7046C94.5771 52.4734 93.3336 53.2439 92.1611 53.2439C90.8487 53.2439 89.8362 52.2939 89.8362 50.7834C89.8362 49.1832 90.8998 48.2441 92.2411 48.2441C93.6356 48.2441 94.5771 49.2423 94.5771 50.7046ZM90.7288 50.7528C90.7288 51.8013 91.3395 52.5916 92.2011 52.5916C93.0627 52.5916 93.6755 51.8101 93.6755 50.7331C93.6755 49.9231 93.2647 48.8965 92.2211 48.8965C91.1774 48.8965 90.7288 49.8443 90.7288 50.744V50.7528Z" fill="black"/>
<path d="M95.6896 49.8445C95.6896 49.2819 95.6896 48.7981 95.6496 48.3537H96.4224L96.4512 49.2906H96.4912C96.5747 48.9989 96.7496 48.7407 96.9909 48.5528C97.2321 48.3648 97.5275 48.2569 97.8347 48.2443C97.9192 48.2428 98.0036 48.2524 98.0856 48.2727V49.0936C97.9871 49.073 97.8865 49.0635 97.7858 49.0652C97.1641 49.0652 96.7222 49.5292 96.6023 50.1816C96.5775 50.3152 96.5641 50.4507 96.5623 50.5866V53.1346H95.6896V49.8445Z" fill="black"/>
<path d="M99.358 50.9014C99.378 52.0769 100.14 52.5607 101.023 52.5607C101.481 52.5744 101.935 52.49 102.356 52.3133L102.507 52.9372C101.996 53.1464 101.446 53.2471 100.892 53.2327C99.4002 53.2327 98.5075 52.2651 98.5075 50.8248C98.5075 49.3844 99.3691 48.2461 100.784 48.2461C102.367 48.2461 102.782 49.6186 102.782 50.4986C102.78 50.634 102.771 50.7692 102.753 50.9036L99.358 50.9014ZM101.954 50.2797C101.954 49.7259 101.732 48.8656 100.73 48.8656C99.8421 48.8656 99.4469 49.6755 99.378 50.2797H101.954Z" fill="black"/>
<path d="M26.9757 61.9977L26.7537 61.4876C27.01 61.4732 27.2537 61.3728 27.4443 61.2031C27.6067 61.0037 27.686 60.7509 27.6663 60.496V57.3569H28.2303V60.4697C28.2303 61.3308 27.8121 61.8401 26.9757 61.9977Z" fill="black"/>
<path d="M32.6183 59.9949C32.6248 60.0079 32.6285 60.022 32.6294 60.0365V60.4196C32.6283 60.434 32.6245 60.4481 32.6183 60.4612C32.6123 60.4693 32.6041 60.4756 32.5947 60.4795C32.5853 60.4833 32.575 60.4846 32.565 60.4831H31.8988C31.9094 60.6722 31.8806 60.8614 31.8142 61.0391C31.7477 61.2168 31.645 61.3792 31.5124 61.5163C31.1949 61.7837 30.8036 61.9514 30.3888 61.9979L30.1512 61.4878C30.4694 61.4581 30.7749 61.3496 31.0394 61.1726C31.1387 61.0879 31.2163 60.9813 31.2661 60.8615C31.3158 60.7417 31.3363 60.6121 31.3259 60.4831V57.8737C31.1342 57.8302 30.9385 57.8067 30.7418 57.8037C30.5956 57.7956 30.4493 57.8202 30.314 57.8755C30.1787 57.9308 30.0578 58.0155 29.9602 58.1233C29.7664 58.3498 29.6651 58.6393 29.676 58.9354C29.6693 59.2054 29.766 59.468 29.9469 59.6709C30.0422 59.7732 30.1594 59.8533 30.29 59.9056C30.4205 59.9578 30.5612 59.9808 30.7019 59.973H31.1171L30.8951 60.4831H30.673C30.3744 60.4894 30.0799 60.4136 29.8225 60.2642C29.589 60.1265 29.4003 59.926 29.2785 59.6862C29.1511 59.4404 29.0863 59.1677 29.0897 58.8916C29.0882 58.6159 29.1569 58.3441 29.2896 58.1014C29.4248 57.8534 29.6279 57.6479 29.8758 57.5082C30.1507 57.3562 30.4623 57.2805 30.7774 57.2893C31.0954 57.2975 31.412 57.3342 31.7234 57.3987L31.9077 57.4315V59.9708H32.5738C32.5826 59.9711 32.5913 59.9734 32.599 59.9776C32.6067 59.9818 32.6133 59.9877 32.6183 59.9949Z" fill="black"/>
<path d="M38.1275 59.5374C38.2229 59.6856 38.358 59.8049 38.5179 59.8822C38.6778 59.9595 38.8563 59.9917 39.0335 59.9752C39.0436 59.9737 39.0539 59.9749 39.0633 59.9788C39.0727 59.9827 39.0808 59.989 39.0868 59.9971C39.0949 60.0096 39.0995 60.0239 39.1002 60.0387V60.4218C39.0992 60.4365 39.0947 60.4508 39.0868 60.4634C39.0808 60.4715 39.0727 60.4778 39.0633 60.4817C39.0539 60.4856 39.0436 60.4868 39.0335 60.4853C38.8138 60.4911 38.5958 60.4469 38.3962 60.3561C38.2094 60.2599 38.0493 60.1201 37.9299 59.949C37.8148 60.1198 37.6572 60.2589 37.4722 60.3527C37.2872 60.4466 37.0809 60.4922 36.8729 60.4853C36.6422 60.4921 36.4136 60.4403 36.209 60.3349C36.0044 60.2295 35.8308 60.074 35.7049 59.8833C35.5949 60.0625 35.4425 60.2127 35.2607 60.3211C35.0678 60.4328 34.8472 60.4896 34.6234 60.4853H32.5605C32.5504 60.4868 32.5401 60.4856 32.5307 60.4817C32.5213 60.4778 32.5132 60.4715 32.5072 60.4634C32.4994 60.4508 32.4948 60.4365 32.4939 60.4218V60.0387C32.4945 60.0239 32.4991 60.0096 32.5072 59.9971C32.5132 59.989 32.5213 59.9827 32.5307 59.9788C32.5401 59.9749 32.5504 59.9737 32.5605 59.9752H33.3888V57.3572H33.9661V59.973H34.5169C34.6279 59.9765 34.7384 59.9567 34.841 59.9148C34.9436 59.8729 35.036 59.8099 35.112 59.7301C35.269 59.5643 35.3529 59.3438 35.3451 59.1171V57.3659H35.9158V59.185C35.9173 59.3258 35.9631 59.4627 36.0468 59.5768C36.1356 59.7 36.2528 59.8006 36.3888 59.8702C36.5198 59.9425 36.6673 59.9809 36.8174 59.9818C36.9247 59.9865 37.0316 59.9677 37.1307 59.9268C37.2297 59.8859 37.3184 59.824 37.3903 59.7454C37.5409 59.5739 37.6202 59.3526 37.6124 59.1259V57.0923H38.1853V59.1784C38.1824 59.3001 38.163 59.4208 38.1275 59.5374ZM34.7322 56.7223V56.0656H35.3496V56.7223H34.7322ZM35.3629 55.6409V55.0127H35.9469V55.6409H35.3629ZM35.9669 56.7223V56.0656H36.5842V56.7223H35.9669Z" fill="black"/>
<path d="M42.3577 57.4336V60.4829H39.0268C39.0167 60.4838 39.0064 60.4818 38.9974 60.4772C38.9883 60.4725 38.9808 60.4654 38.9758 60.4566C38.9687 60.4453 38.9642 60.4326 38.9624 60.4194V60.0363C38.963 60.0216 38.9676 60.0072 38.9758 59.9947C38.9814 59.9868 38.9892 59.9806 38.9982 59.9767C39.0072 59.9728 39.0171 59.9715 39.0268 59.9729H40.0838C39.9074 59.8576 39.7662 59.6972 39.6752 59.5088C39.5782 59.3079 39.5296 59.0877 39.5331 58.8652C39.5325 58.5914 39.6053 58.3223 39.7441 58.0851C39.883 57.8479 40.0829 57.6511 40.3237 57.5146C40.5945 57.3646 40.9013 57.289 41.2119 57.2957C41.5973 57.3077 41.9807 57.3539 42.3577 57.4336ZM40.4192 58.1231C40.2269 58.3504 40.1265 58.6395 40.1371 58.9353C40.1358 59.1141 40.1785 59.2906 40.2615 59.4497C40.3443 59.6065 40.4696 59.7375 40.6234 59.8284C40.7924 59.9277 40.9864 59.9777 41.183 59.9729H41.787V57.8801C41.5929 57.8327 41.3941 57.8071 41.1941 57.8035C41.0489 57.7963 40.9039 57.8213 40.7698 57.8766C40.6357 57.9319 40.5159 58.0161 40.4192 58.1231ZM40.8277 56.7221V56.0654H41.4451V56.7221H40.8277Z" fill="black"/>
<path d="M45.884 57.4009L46.0683 57.4337V60.4502C46.0816 60.6428 46.055 60.8361 45.9901 61.0182C45.9252 61.2004 45.8234 61.3676 45.6908 61.5097C45.3731 61.7831 44.9777 61.9535 44.5583 61.9979L44.3207 61.4878C44.639 61.4581 44.9445 61.3496 45.209 61.1726C45.3082 61.0879 45.3859 60.9813 45.4356 60.8615C45.4854 60.7417 45.5059 60.6121 45.4954 60.4831V57.8737C45.3038 57.8302 45.108 57.8067 44.9114 57.8037C44.7651 57.7956 44.6189 57.8202 44.4836 57.8755C44.3483 57.9308 44.2273 58.0155 44.1298 58.1233C43.936 58.3498 43.8347 58.6393 43.8455 58.9354C43.8389 59.2054 43.9356 59.468 44.1165 59.6709C44.2118 59.7732 44.329 59.8533 44.4595 59.9056C44.5901 59.9578 44.7308 59.9808 44.8715 59.973H45.2845L45.0624 60.4831H44.8404C44.5417 60.4894 44.2472 60.4136 43.9899 60.2642C43.7564 60.1265 43.5676 59.926 43.4458 59.6862C43.3184 59.4404 43.2537 59.1677 43.2571 58.8916C43.2555 58.6159 43.3242 58.3441 43.4569 58.1014C43.5922 57.8534 43.7953 57.6479 44.0432 57.5082C44.3181 57.3562 44.6297 57.2805 44.9447 57.2893C45.2606 57.2986 45.575 57.336 45.884 57.4009Z" fill="black"/>
<path d="M47.1786 60.4828V55.5225H47.7493V60.4828H47.1786Z" fill="black"/>
<path d="M55.6058 59.7057V57.1752H55.1195C54.9734 57.1638 54.8266 57.1839 54.6893 57.2342C54.552 57.2844 54.4275 57.3637 54.3245 57.4664C54.1466 57.6687 54.0529 57.9299 54.0625 58.1975V60.4828H51.9906C51.587 60.5063 51.1896 60.3763 50.8803 60.1195C50.7449 59.9969 50.6383 59.8465 50.5681 59.679C50.4979 59.5115 50.4658 59.3308 50.474 59.1497V57.2715H51.0447V59.1037C51.0405 59.2203 51.0615 59.3364 51.1063 59.4443C51.1511 59.5522 51.2186 59.6496 51.3045 59.7298C51.5287 59.9087 51.8141 59.9957 52.1017 59.9728H53.4873V58.1515C53.4837 57.8872 53.5471 57.6261 53.6716 57.3919C53.7917 57.1673 53.9753 56.9817 54.2001 56.8578C54.4468 56.7241 54.7248 56.6569 55.0062 56.663H56.1742V59.7057H55.6058ZM51.7042 61.8685V61.2118H52.3215V61.8685H51.7042ZM52.9388 61.8685V61.2118H53.5562V61.8685H52.9388Z" fill="black"/>
<path d="M57.9641 60.8134L57.8641 61.1439C57.766 61.1142 57.6646 61.0966 57.5621 61.0914C57.5117 61.0913 57.4623 61.1058 57.42 61.133C57.3991 61.1483 57.3825 61.1686 57.3716 61.1919C57.3607 61.2152 57.356 61.2409 57.3578 61.2665C57.3558 61.3013 57.3635 61.3359 57.3799 61.3667C57.3963 61.3976 57.4209 61.4235 57.4511 61.4416H58.0551V61.7787H56.7605L56.8537 61.4416H57.098C57.0576 61.3675 57.0355 61.285 57.0336 61.2008C57.0292 61.0751 57.0746 60.9526 57.1602 60.8593C57.2064 60.8127 57.2622 60.7764 57.3239 60.753C57.3856 60.7296 57.4517 60.7196 57.5177 60.7236C57.6703 60.7303 57.8209 60.7606 57.9641 60.8134ZM57.2668 60.4762V55.5225H57.8375V60.4828L57.2668 60.4762Z" fill="black"/>
<path d="M65.6939 59.7059V57.1754H65.2076C65.0616 57.164 64.9148 57.1841 64.7775 57.2344C64.6402 57.2847 64.5156 57.3639 64.4126 57.4666C64.2347 57.6689 64.1411 57.9301 64.1506 58.1977V60.483H62.0743C61.6707 60.5065 61.2733 60.3765 60.964 60.1197C60.8286 59.9971 60.722 59.8467 60.6518 59.6792C60.5816 59.5117 60.5495 59.331 60.5577 59.1499V57.2717H61.1284V59.104C61.1242 59.2205 61.1452 59.3366 61.19 59.4445C61.2348 59.5524 61.3024 59.6498 61.3882 59.73C61.6124 59.9089 61.8978 59.9959 62.1854 59.973H63.571V58.1517C63.5674 57.8874 63.6308 57.6263 63.7553 57.3921C63.8754 57.1675 64.059 56.9819 64.2838 56.858C64.5304 56.7211 64.8092 56.6509 65.0921 56.6544H66.2602V59.6972L65.6939 59.7059ZM61.7923 61.8687V61.212H62.4096V61.8687H61.7923ZM63.027 61.8687V61.212H63.6443V61.8687H63.027Z" fill="black"/>
<path d="M69.7865 60.2051C69.3734 60.3919 68.7361 60.4846 67.8745 60.4831H67.0462L66.8242 59.9731H67.9345C68.4076 59.982 68.88 59.9312 69.3401 59.822L68.3431 57.2915H68.9471L69.9574 59.8417L69.7865 60.2051Z" fill="black"/>
<path d="M73.9234 61.6367C73.5199 61.659 73.1229 61.5291 72.8131 61.2733C72.6775 61.1504 72.5708 60.9996 72.5006 60.8317C72.4304 60.6638 72.3984 60.4828 72.4068 60.3013V58.8719H72.9775V60.2576C72.9737 60.3746 72.9951 60.4911 73.0402 60.5993C73.0854 60.7076 73.1533 60.8053 73.2395 60.8858C73.4622 61.0661 73.7472 61.1541 74.0345 61.131H75.0848V57.3571H75.6555V61.6367H73.9234ZM73.6547 57.2783V56.6216H74.2721V57.2783H73.6547Z" fill="black"/>
<path d="M76.7613 60.4828V55.5225H77.332V60.4828H76.7613Z" fill="black"/>
<path d="M79.8146 58.7667V58.2041H81.7466V58.7667H79.8146Z" fill="black"/>
<path d="M90.0049 59.8349C90.0601 59.8844 90.1251 59.9222 90.1957 59.946C90.2664 59.9697 90.3413 59.9788 90.4157 59.9728H90.5467C90.5568 59.9713 90.5671 59.9725 90.5765 59.9764C90.5859 59.9802 90.594 59.9866 90.6 59.9947C90.6081 60.0071 90.6127 60.0215 90.6133 60.0363V60.4193C90.6124 60.4341 90.6078 60.4484 90.6 60.4609C90.594 60.4691 90.5859 60.4754 90.5765 60.4792C90.5671 60.4831 90.5568 60.4843 90.5467 60.4828H90.3113C90.17 60.494 90.0279 60.4736 89.8957 60.4232C89.7634 60.3728 89.6444 60.2937 89.5475 60.1917C89.3736 59.975 89.2852 59.7036 89.2987 59.4277V57.1752H88.8124C88.6664 57.1638 88.5196 57.1839 88.3823 57.2342C88.245 57.2844 88.1205 57.3637 88.0175 57.4664C87.8395 57.6687 87.7459 57.9299 87.7554 58.1975V60.4828H85.6792C85.2756 60.5059 84.8784 60.3759 84.5689 60.1195C84.4335 59.9969 84.3269 59.8465 84.2567 59.679C84.1865 59.5115 84.1543 59.3308 84.1625 59.1497V57.2715H84.7332V59.1037C84.7291 59.2203 84.7501 59.3364 84.7949 59.4443C84.8397 59.5522 84.9072 59.6495 84.993 59.7298C85.2173 59.9087 85.5027 59.9957 85.7902 59.9728H87.1781V58.1515C87.1738 57.8873 87.2364 57.6263 87.3602 57.3919C87.4809 57.167 87.6652 56.9814 87.8909 56.8578C88.1367 56.7241 88.4141 56.6569 88.6947 56.663H89.8628V59.3883C89.8498 59.5497 89.9007 59.7097 90.0049 59.8349Z" fill="black"/>
<path d="M92.019 59.5438C92.0961 59.6871 92.2143 59.805 92.3587 59.8828C92.5032 59.9606 92.6676 59.995 92.8317 59.9816C92.8417 59.9801 92.852 59.9813 92.8614 59.9852C92.8708 59.9891 92.879 59.9954 92.885 60.0035C92.8931 60.016 92.8977 60.0303 92.8983 60.0451V60.4282C92.8974 60.4429 92.8928 60.4572 92.885 60.4698C92.879 60.4779 92.8708 60.4842 92.8614 60.4881C92.852 60.4919 92.8417 60.4932 92.8317 60.4917C92.6326 60.4935 92.4359 60.4486 92.2579 60.3607C92.0799 60.2727 91.9257 60.1443 91.808 59.986C91.6928 60.1469 91.5391 60.2772 91.3605 60.3655C91.1819 60.4537 90.984 60.497 90.7843 60.4917H90.5467C90.5367 60.4932 90.5264 60.4919 90.517 60.4881C90.5076 60.4842 90.4994 60.4779 90.4934 60.4698C90.4856 60.4572 90.481 60.4429 90.4801 60.4282V60.0451C90.4807 60.0303 90.4853 60.016 90.4934 60.0035C90.4994 59.9954 90.5076 59.9891 90.517 59.9852C90.5264 59.9813 90.5367 59.9801 90.5467 59.9816H90.6777C90.7881 59.9854 90.898 59.9656 91 59.9236C91.1019 59.8817 91.1934 59.8186 91.2684 59.7386C91.4208 59.5708 91.5005 59.3508 91.4905 59.1257V57.3745H92.0611V59.187C92.0642 59.3073 92.05 59.4274 92.019 59.5438ZM91.466 56.7221V56.0654H92.0833V56.7221H91.466Z" fill="black"/>
<path d="M95.4476 57.6481C95.741 57.9046 95.964 58.2298 96.096 58.5938L96.458 59.4869C96.5757 59.7846 96.8444 59.951 97.2596 59.9838L97.0376 60.4829C96.8611 60.4745 96.6884 60.4291 96.531 60.3499C96.3737 60.2706 96.2352 60.1593 96.1249 60.0232C95.8201 60.1757 95.4971 60.2897 95.1634 60.3625C94.8287 60.441 94.4859 60.4814 94.1419 60.4829H92.834C92.8237 60.4841 92.8134 60.4822 92.8043 60.4775C92.7952 60.4729 92.7877 60.4656 92.7829 60.4566C92.7758 60.4453 92.7713 60.4326 92.7696 60.4194V60.0363C92.7702 60.0216 92.7748 60.0072 92.7829 59.9948C92.7829 59.9794 92.8073 59.9729 92.834 59.9729H94.1419C94.7482 59.9798 95.3505 59.8759 95.9184 59.6664L95.8984 59.6226L95.5298 58.747C95.4284 58.481 95.2576 58.2462 95.0346 58.0662C94.8103 57.9127 94.5412 57.8359 94.2685 57.8473C93.9911 57.8533 93.7199 57.9287 93.4802 58.0662L93.2581 57.5934C93.4357 57.5049 93.6207 57.4317 93.811 57.3745C94.0054 57.3255 94.2056 57.3026 94.4061 57.3066C94.7841 57.2904 95.1548 57.412 95.4476 57.6481ZM94.1819 61.8686V61.2119H94.7992V61.8686H94.1819Z" fill="black"/>
<path d="M139.087 38.2709C140.696 38.2709 142 36.985 142 35.3989C142 33.8127 140.696 32.5269 139.087 32.5269C137.478 32.5269 136.173 33.8127 136.173 35.3989C136.173 36.985 137.478 38.2709 139.087 38.2709Z" fill="#2D3C90"/>
<path d="M12.2665 0.284668V26.6253C12.2665 34.4139 9.2643 35.064 6.18878 35.064C4.88476 35.0673 3.59061 34.8412 2.36715 34.3964L1.13917 33.9279L-0.00888062 40.09L0.803856 40.4162C2.25168 41.0007 4.62771 41.4078 6.57739 41.4078C15.1111 41.4078 19.4368 36.5679 19.4368 27.0237V0.284668H12.2665Z" fill="black"/>
<path d="M43.206 0.284668H35.5938L21.6352 40.7818H29.1186L33.1578 28.7136H45.4044L49.5613 40.7818H57.2157L43.206 0.284668ZM43.6346 22.7244H34.9299L38.2607 13.0117C38.5938 11.9719 38.9269 10.8883 39.2533 9.71502C39.5598 10.8095 39.9018 11.9194 40.3059 13.0883L43.6346 22.7244Z" fill="black"/>
<path d="M89.9627 5.06542C86.2521 1.6571 80.8583 0 73.4638 0C69.8333 0.00232343 66.208 0.272328 62.6184 0.807754L61.6991 0.945664V40.554L62.6584 40.6613C65.7295 40.9836 68.8165 41.137 71.9049 41.121C79.7902 41.121 86.0034 39.1049 89.8695 35.296C93.7444 31.5352 95.794 26.1152 95.794 19.6203C95.7962 13.4582 93.831 8.55912 89.9627 5.06542ZM88.3772 19.7932C88.3772 24.6792 87.0449 28.4728 84.4335 31.0646C81.8221 33.6564 77.9072 35.0048 72.8864 35.0048C71.7228 35.0048 70.1551 34.9873 68.8893 34.8582V6.3876C70.4805 6.15286 72.0881 6.04307 73.6969 6.05924C78.6089 6.05924 82.3572 7.31575 84.8665 9.79812C87.2247 12.136 88.4083 15.5005 88.3795 19.7932H88.3772Z" fill="black"/>
<path d="M106.697 34.4949V22.7945H121.826V16.5645H106.697V6.57157H122.69V0.284668H99.5113V40.7818H123.558V34.4949H106.697Z" fill="black"/>
<path d="M141.163 21.5488C141.063 18.6024 140.053 16.0303 139.409 13.4954C139.113 12.3417 138.78 11.1597 138.447 10.0608C138.142 8.93091 137.96 7.77217 137.905 6.60428C137.902 5.68237 138.004 4.76304 138.209 3.86361C138.389 2.9955 138.782 2.1843 139.355 1.50164C139.564 1.25866 140.554 0.142254 140.643 0.155388C139.155 0.302054 138.596 0.698273 137.756 1.32215C136.748 2.07299 136.202 3.20909 135.936 4.39993C135.848 4.77843 135.794 5.16367 135.773 5.55136C135.742 5.91532 135.732 6.28079 135.745 6.64587C135.845 9.5945 136.842 12.1644 137.497 14.7015C138.163 17.0788 138.938 19.3751 138.996 21.5926C139.001 22.5145 138.899 23.434 138.694 24.3333C138.513 25.2017 138.12 26.0134 137.548 26.6974C137.337 26.9382 136.349 28.0546 136.26 28.0415C137.748 27.897 138.305 27.4986 139.147 26.8747C140.155 26.1239 140.701 24.9878 140.967 23.797C141.057 23.4196 141.111 23.0349 141.13 22.6477C141.162 22.2824 141.174 21.9154 141.163 21.5488Z" fill="#2D3C90"/>
<path d="M133.486 28.2234C134.152 25.6864 135.138 23.1142 135.238 20.1678C135.251 19.7991 135.241 19.4299 135.209 19.0623C135.187 18.6737 135.131 18.2877 135.041 17.9087C134.772 16.7179 134.228 15.5818 133.22 14.8309C132.38 14.2071 131.821 13.8108 130.333 13.6642C130.422 13.651 131.412 14.7587 131.621 15.0082C132.193 15.692 132.587 16.5038 132.767 17.3724C132.972 18.2718 133.074 19.1911 133.071 20.1131C133.018 21.2609 132.841 22.3998 132.543 23.5105C132.216 24.5918 131.892 25.7498 131.601 26.8794C130.946 29.4143 129.949 31.9864 129.849 34.9328C129.837 35.2979 129.846 35.6634 129.878 36.0273C129.898 36.415 129.953 36.8002 130.04 37.1788C130.309 38.3674 130.853 39.5057 131.861 40.2434C132.7 40.8695 133.26 41.2657 134.748 41.4124C134.659 41.4233 133.668 40.3069 133.46 40.0661C132.887 39.3832 132.494 38.5721 132.314 37.7041C132.113 36.8108 132.014 35.8982 132.018 34.9832C132.076 32.8051 132.829 30.5482 133.484 28.2169L133.486 28.2234Z" fill="#2D3C90"/>
</g>
<defs>
<clipPath id="clip0_1572_682">
<rect width="142" height="62" fill="white"/>
</clipPath>
</defs>
</svg>
