<svg width="22" height="22" viewBox="0 0 22 22" fill="none" xmlns="http://www.w3.org/2000/svg">
<path d="M21.707 4.293L17.707 0.293C17.5195 0.105451 17.2652 5.66374e-05 17 0H5C4.73481 5.66374e-05 4.48049 0.105451 4.293 0.293L0.293 4.293C0.105451 4.48049 5.66374e-05 4.73481 0 5V19C0 19.7956 0.31607 20.5587 0.87868 21.1213C1.44129 21.6839 2.20435 22 3 22H19C19.7956 22 20.5587 21.6839 21.1213 21.1213C21.6839 20.5587 22 19.7956 22 19V5C21.9999 4.73481 21.8946 4.48049 21.707 4.293ZM11 18L6 12H9V8H13V12H16L11 18ZM3.414 4L5.414 2H16.586L18.586 4H3.414Z" fill="#2D3C90"/>
</svg>
