<svg width="64" height="64" viewBox="0 0 64 64" fill="none" xmlns="http://www.w3.org/2000/svg">
<path d="M62.2762 29.73C50.2292 12.825 37.0922 11 32.0002 11C26.8652 11 13.6342 12.826 1.71218 29.744C1.24689 30.4042 0.998041 31.1926 1.00001 32.0003C1.00198 32.8079 1.25467 33.5951 1.72318 34.253C4.85218 38.652 16.2742 53 32.0002 53C37.0552 53 50.1212 51.175 62.2642 34.267C62.7392 33.6065 62.9957 32.814 62.9978 32.0004C63 31.1869 62.7477 30.393 62.2762 29.73V29.73ZM32.0062 44C29.6328 44 27.3127 43.2962 25.3393 41.9776C23.366 40.6591 21.8279 38.7849 20.9196 36.5922C20.0114 34.3995 19.7737 31.9867 20.2368 29.6589C20.6998 27.3311 21.8427 25.1929 23.5209 23.5147C25.1991 21.8365 27.3373 20.6936 29.6651 20.2306C31.9929 19.7676 34.4057 20.0052 36.5984 20.9134C38.7911 21.8217 40.6652 23.3598 41.9838 25.3332C43.3024 27.3065 44.0062 29.6266 44.0062 32C44.0062 35.1826 42.7419 38.2348 40.4915 40.4853C38.241 42.7357 35.1888 44 32.0062 44Z" fill="white"/>
</svg>
