<svg width="23" height="23" viewBox="0 0 23 23" fill="none" xmlns="http://www.w3.org/2000/svg">
<g clip-path="url(#clip0_756_1466)">
<path d="M20.8438 0.71875H2.15625C1.775 0.71875 1.40937 0.8702 1.13978 1.13978C0.8702 1.40937 0.71875 1.775 0.71875 2.15625V20.8438C0.71875 21.225 0.8702 21.5906 1.13978 21.8602C1.40937 22.1298 1.775 22.2812 2.15625 22.2812H20.8438C21.225 22.2812 21.5906 22.1298 21.8602 21.8602C22.1298 21.5906 22.2812 21.225 22.2812 20.8438V2.15625C22.2812 1.775 22.1298 1.40937 21.8602 1.13978C21.5906 0.8702 21.225 0.71875 20.8438 0.71875ZM7.10628 19.1144H3.86256V8.80469H7.10628V19.1144ZM5.48406 7.38947C5.11115 7.38833 4.74694 7.27671 4.43743 7.06871C4.12792 6.8607 3.88699 6.56564 3.74507 6.22079C3.60315 5.87594 3.5666 5.49677 3.64005 5.13116C3.7135 4.76555 3.89364 4.42991 4.15773 4.16662C4.42182 3.90333 4.75801 3.72421 5.12384 3.65187C5.48967 3.57954 5.86873 3.61724 6.21315 3.76021C6.55757 3.90317 6.85189 4.145 7.05896 4.45515C7.26602 4.76529 7.37653 5.12984 7.37653 5.50275C7.37663 5.75103 7.3277 5.99688 7.23256 6.22621C7.13742 6.45553 6.99793 6.66382 6.8221 6.83911C6.64628 7.0144 6.43757 7.15325 6.20796 7.2477C5.97834 7.34214 5.73234 7.39032 5.48406 7.38947ZM19.1338 19.1144H15.9563V14.1278C15.9563 12.9152 15.9563 11.4324 14.2672 11.4324C12.5781 11.4324 12.3747 12.7133 12.3747 14.0602V19.182H9.2V8.80469H12.1728V10.2199H12.2403C12.5469 9.68983 12.9918 9.25306 13.5275 8.95631C14.0631 8.65955 14.6694 8.51398 15.2813 8.53516C18.5251 8.53516 19.1331 10.6914 19.1331 13.4543L19.1338 19.1144Z" fill="black"/>
</g>
<defs>
<clipPath id="clip0_756_1466">
<rect width="23" height="23" fill="white"/>
</clipPath>
</defs>
</svg>
