<svg width="178" height="79" viewBox="0 0 178 79" fill="none" xmlns="http://www.w3.org/2000/svg">
<g clip-path="url(#clip0_64_1168)">
<path d="M28.4064 59.2188H29.4975V64.8977C29.4975 67.1486 28.3841 67.8431 26.9339 67.8431C26.5367 67.8416 26.1425 67.7737 25.7676 67.6423L25.929 66.7469C26.2228 66.8569 26.534 66.9127 26.8476 66.9115C27.8274 66.9115 28.4064 66.4708 28.4064 64.8084V59.2188Z" fill="white"/>
<path d="M34.6497 67.7037L34.5607 66.9366H34.5245C34.3082 67.2244 34.0269 67.4566 33.7037 67.6142C33.3804 67.7718 33.0245 67.8503 32.6651 67.8431C31.432 67.8431 30.8057 66.9729 30.8057 66.0915C30.8057 64.6188 32.1112 63.8127 34.4605 63.8266V63.7011C34.4605 63.1963 34.3241 62.2898 33.0687 62.2898C32.5088 62.2908 31.9604 62.4483 31.4849 62.7444L31.2343 62.0136C31.8364 61.6506 32.5276 61.4632 33.2301 61.4725C35.0895 61.4725 35.5433 62.7444 35.5433 63.9661V66.2449C35.5353 66.7331 35.5688 67.2212 35.6435 67.7037H34.6497ZM34.4855 64.5937C33.2802 64.5686 31.9107 64.7833 31.9107 65.966C31.8991 66.1068 31.9181 66.2485 31.9663 66.3812C32.0144 66.514 32.0907 66.6348 32.1899 66.7352C32.2891 66.8356 32.4088 66.9134 32.5408 66.9631C32.6728 67.0128 32.8139 67.0332 32.9546 67.0231C33.2757 67.032 33.5913 66.938 33.8556 66.755C34.1199 66.5719 34.3191 66.3092 34.4243 66.005C34.4621 65.8907 34.4828 65.7713 34.4855 65.6508V64.5937Z" fill="white"/>
<path d="M37.3357 63.2633C37.3357 62.6329 37.3218 62.1169 37.2856 61.6148H38.2655L38.3295 62.6217H38.3517C38.5513 62.2652 38.8442 61.97 39.1988 61.768C39.5535 61.5659 39.9564 61.4648 40.3643 61.4754C41.1993 61.4754 42.5132 61.9774 42.5132 64.0694V67.6954H41.3997V64.1921C41.3997 63.2103 41.0379 62.3902 39.994 62.3902C39.5705 62.4069 39.1702 62.589 38.8789 62.8976C38.5876 63.2062 38.4284 63.6168 38.4353 64.0415V67.7037H37.3218L37.3357 63.2633Z" fill="white"/>
<path d="M47.6795 67.7037L47.5905 66.9366H47.5543C47.338 67.2244 47.0567 67.4566 46.7335 67.6142C46.4102 67.7718 46.0543 67.8503 45.6949 67.8431C44.4617 67.8431 43.8354 66.9729 43.8354 66.0915C43.8354 64.6188 45.1409 63.8127 47.4903 63.8266V63.7011C47.4903 63.1963 47.3511 62.2898 46.0985 62.2898C45.5395 62.2909 44.9919 62.4484 44.5174 62.7444L44.2669 62.0136C44.8689 61.6506 45.5601 61.4632 46.2627 61.4725C48.1221 61.4725 48.5758 62.7444 48.5758 63.9661V66.2449C48.5678 66.7331 48.6014 67.2212 48.676 67.7037H47.6795ZM47.5153 64.5937C46.31 64.5686 44.9405 64.7833 44.9405 65.966C44.929 66.1065 44.9478 66.2479 44.9959 66.3805C45.0439 66.5131 45.1199 66.6337 45.2188 66.7341C45.3177 66.8345 45.437 66.9123 45.5687 66.9621C45.7003 67.012 45.8412 67.0328 45.9816 67.0231C46.3028 67.0324 46.6186 66.9387 46.883 66.7555C47.1474 66.5724 47.3465 66.3095 47.4513 66.005C47.4913 65.8911 47.513 65.7715 47.5153 65.6508V64.5937Z" fill="white"/>
<path d="M55.5931 63.8906V64.7079H52.4922V63.8906H55.5931Z" fill="white"/>
<path d="M59.6045 67.7036V59.2188H60.7986L63.5015 63.5114C64.0665 64.3974 64.5742 65.3188 65.0213 66.27H65.0463C64.9461 65.1375 64.9211 64.1055 64.9211 62.7834V59.2188H65.951V67.7036H64.8376L62.1487 63.397C61.563 62.487 61.034 61.5415 60.5648 60.566H60.5258C60.5899 61.637 60.6149 62.6579 60.6149 64.0665V67.6925L59.6045 67.7036Z" fill="white"/>
<path d="M67.8574 59.3328C68.6265 59.2142 69.4035 59.1545 70.1817 59.1543C71.7516 59.1543 72.8706 59.5197 73.611 60.2142C74.3515 60.9087 74.8052 61.8878 74.8052 63.2601C74.8052 64.6324 74.3793 65.7704 73.586 66.557C72.7927 67.3436 71.4872 67.7787 69.8421 67.7787C69.1792 67.7832 68.5165 67.7497 67.8574 67.6783V59.3328ZM68.9514 66.8359C69.3202 66.8863 69.6926 66.9069 70.0648 66.8973C72.4002 66.8973 73.6834 65.5891 73.6834 63.2963C73.6834 61.2964 72.57 60.0246 70.2541 60.0246C69.8246 60.0181 69.3955 60.0554 68.9736 60.1361L68.9514 66.8359Z" fill="white"/>
<path d="M80.6092 63.7262H77.319V66.7944H80.9878V67.712H76.2251V59.2188H80.7985V60.1364H77.319V62.8197H80.6092V63.7262Z" fill="white"/>
<path d="M92.3085 63.372C92.3085 66.2952 90.5353 67.8348 88.3753 67.8348C86.1484 67.8348 84.5674 66.0971 84.5674 63.5282C84.5674 60.8338 86.2375 59.0654 88.5006 59.0654C90.8109 59.0794 92.3085 60.8561 92.3085 63.372ZM85.7365 63.5115C85.7365 65.3245 86.7163 66.9478 88.4365 66.9478C90.1568 66.9478 91.1505 65.3496 91.1505 63.425C91.1505 61.7375 90.2709 59.9747 88.4505 59.9747C86.63 59.9747 85.7365 61.6483 85.7365 63.5115Z" fill="white"/>
<path d="M97.6471 67.7034V62.454H95.0974V67.7034H94.0035V62.454H93.1489V61.6172H94.0035V61.4136C94.0035 60.5573 94.2039 59.8154 94.6827 59.3384C94.8869 59.1464 95.1279 58.998 95.391 58.9021C95.6542 58.8062 95.934 58.7649 96.2136 58.7806C96.5156 58.7828 96.8129 58.8554 97.0821 58.9925L96.8566 59.8126C96.652 59.7152 96.429 59.6629 96.2025 59.6592C95.3368 59.6592 95.0891 60.4039 95.0891 61.3606V61.6256H97.6388V61.3467C97.6388 60.4904 97.8392 59.7094 98.3542 59.2185C98.7536 58.8491 99.2804 58.6491 99.8239 58.6606C100.147 58.6577 100.467 58.7174 100.768 58.8364L100.628 59.6927C100.403 59.5953 100.159 59.5478 99.913 59.5532C98.9833 59.5532 98.7327 60.39 98.7327 61.316V61.6451H100.202V62.4819H98.7439V67.7313L97.6471 67.7034Z" fill="white"/>
<path d="M100.951 66.5709C101.389 66.8455 101.893 66.9976 102.41 67.0116C103.214 67.0116 103.59 66.6071 103.59 66.1051C103.59 65.603 103.275 65.285 102.46 64.9894C101.366 64.5989 100.851 63.9964 100.851 63.2656C100.851 62.2838 101.644 61.4777 102.95 61.4777C103.472 61.4726 103.987 61.6022 104.445 61.8542L104.166 62.6603C103.792 62.4303 103.361 62.3086 102.922 62.3089C102.268 62.3089 101.903 62.6854 101.903 63.1457C101.903 63.6477 102.268 63.8737 103.061 64.1777C104.116 64.5793 104.656 65.1093 104.656 66.0158C104.656 67.0841 103.821 67.84 102.382 67.84C101.786 67.8519 101.197 67.7087 100.673 67.4244L100.951 66.5709Z" fill="white"/>
<path d="M106.09 58.7666H107.203V62.5683C107.39 62.2392 107.665 61.9688 107.996 61.7874C108.339 61.5846 108.729 61.4759 109.127 61.4722C109.942 61.4722 111.25 61.9742 111.25 64.0773V67.7033H110.137V64.2028C110.137 63.221 109.772 62.3898 108.731 62.3898C108.399 62.3972 108.077 62.5087 107.811 62.7088C107.544 62.9089 107.348 63.1875 107.248 63.5055C107.188 63.6746 107.163 63.8537 107.173 64.0327V67.7089H106.059L106.09 58.7666Z" fill="white"/>
<path d="M118.554 64.6073C118.554 66.861 116.995 67.8428 115.526 67.8428C113.881 67.8428 112.611 66.6323 112.611 64.7077C112.611 62.6688 113.945 61.4722 115.626 61.4722C117.374 61.4722 118.554 62.7441 118.554 64.6073ZM113.73 64.6687C113.73 66.0047 114.496 67.0116 115.576 67.0116C116.656 67.0116 117.424 66.0159 117.424 64.6436C117.424 63.6115 116.909 62.3034 115.601 62.3034C114.293 62.3034 113.73 63.5111 113.73 64.6575V64.6687Z" fill="white"/>
<path d="M119.949 63.5113C119.949 62.7945 119.949 62.178 119.899 61.6118H120.868L120.904 62.8056H120.954C121.059 62.4339 121.278 62.1048 121.58 61.8654C121.883 61.626 122.253 61.4884 122.638 61.4723C122.744 61.4705 122.85 61.4827 122.953 61.5086V62.5546C122.829 62.5283 122.703 62.5161 122.577 62.5183C121.797 62.5183 121.243 63.1096 121.093 63.9408C121.062 64.1111 121.045 64.2838 121.043 64.4569V67.7035H119.949V63.5113Z" fill="white"/>
<path d="M124.548 64.8584C124.573 66.3563 125.527 66.9727 126.635 66.9727C127.208 66.9902 127.778 66.8827 128.305 66.6575L128.495 67.4525C127.854 67.719 127.164 67.8473 126.471 67.829C124.6 67.829 123.481 66.5962 123.481 64.7608C123.481 62.9255 124.561 61.4751 126.335 61.4751C128.319 61.4751 128.84 63.224 128.84 64.3452C128.837 64.5178 128.825 64.6901 128.804 64.8612L124.548 64.8584ZM127.802 64.0663C127.802 63.3606 127.523 62.2645 126.268 62.2645C125.154 62.2645 124.659 63.2965 124.573 64.0663H127.802Z" fill="white"/>
<path d="M33.8145 78.9972L33.5361 78.3473C33.8575 78.3289 34.163 78.201 34.4018 77.9847C34.6054 77.7307 34.7049 77.4086 34.6802 77.0838V73.084H35.3872V77.0503C35.3872 78.1474 34.863 78.7964 33.8145 78.9972Z" fill="white"/>
<path d="M40.8876 76.445C40.8958 76.4615 40.9005 76.4795 40.9015 76.498V76.9861C40.9001 77.0045 40.8954 77.0224 40.8876 77.0391C40.8801 77.0494 40.8699 77.0575 40.8581 77.0624C40.8463 77.0673 40.8334 77.0689 40.8208 77.067H39.9857C39.9991 77.3079 39.963 77.5491 39.8797 77.7755C39.7964 78.002 39.6676 78.2089 39.5014 78.3835C39.1034 78.7242 38.6129 78.9379 38.0929 78.9971L37.7951 78.3473C38.194 78.3093 38.577 78.1712 38.9085 77.9456C39.0329 77.8376 39.1302 77.7018 39.1926 77.5492C39.255 77.3966 39.2807 77.2314 39.2676 77.067V73.7422C39.0273 73.6867 38.782 73.6568 38.5355 73.6529C38.3521 73.6427 38.1688 73.6739 37.9992 73.7444C37.8296 73.8149 37.678 73.9229 37.5557 74.0602C37.3128 74.3488 37.1858 74.7177 37.1994 75.095C37.191 75.439 37.3123 75.7736 37.539 76.0322C37.6585 76.1625 37.8054 76.2646 37.969 76.3311C38.1327 76.3977 38.309 76.427 38.4854 76.4171H39.0059L38.7276 77.067H38.4492C38.0749 77.075 37.7057 76.9785 37.3831 76.788C37.0904 76.6127 36.8538 76.3572 36.7011 76.0517C36.5414 75.7384 36.4602 75.3909 36.4645 75.0392C36.4625 74.6878 36.5487 74.3416 36.715 74.0323C36.8846 73.7163 37.1392 73.4545 37.4499 73.2764C37.7945 73.0827 38.1851 72.9863 38.58 72.9974C38.9787 73.008 39.3756 73.0547 39.7658 73.1369L39.9969 73.1787V76.4143H40.8319C40.843 76.4146 40.8538 76.4176 40.8635 76.4229C40.8731 76.4282 40.8814 76.4358 40.8876 76.445Z" fill="white"/>
<path d="M47.7938 75.8621C47.9134 76.0509 48.0828 76.2029 48.2832 76.3014C48.4836 76.3998 48.7073 76.4408 48.9295 76.4199C48.9421 76.418 48.955 76.4195 48.9668 76.4245C48.9786 76.4294 48.9888 76.4375 48.9963 76.4478C49.0065 76.4637 49.0122 76.482 49.013 76.5008V76.9889C49.0119 77.0077 49.0061 77.0259 48.9963 77.0419C48.9888 77.0523 48.9786 77.0603 48.9668 77.0652C48.955 77.0702 48.9421 77.0717 48.9295 77.0698C48.6541 77.0772 48.3808 77.0209 48.1306 76.9052C47.8965 76.7826 47.6958 76.6045 47.5461 76.3864C47.4018 76.6042 47.2043 76.7813 46.9723 76.9009C46.7404 77.0205 46.4818 77.0787 46.2211 77.0698C45.9319 77.0785 45.6453 77.0125 45.3889 76.8782C45.1325 76.7439 44.9149 76.5457 44.757 76.3028C44.6191 76.5311 44.4281 76.7225 44.2002 76.8606C43.9583 77.0029 43.6818 77.0753 43.4014 77.0698H40.8154C40.8028 77.0717 40.7899 77.0702 40.7781 77.0652C40.7663 77.0603 40.7561 77.0523 40.7486 77.0419C40.7388 77.0259 40.7331 77.0077 40.7319 76.9889V76.5008C40.7327 76.482 40.7385 76.4637 40.7486 76.4478C40.7561 76.4375 40.7663 76.4294 40.7781 76.4245C40.7899 76.4195 40.8028 76.418 40.8154 76.4199H41.8537V73.084H42.5774V76.4171H43.2677C43.4069 76.4216 43.5454 76.3963 43.6741 76.3429C43.8027 76.2895 43.9185 76.2093 44.0137 76.1075C44.2106 75.8963 44.3157 75.6154 44.306 75.3265V73.0951H45.0214V75.413C45.0233 75.5924 45.0807 75.7669 45.1856 75.9123C45.2968 76.0692 45.4438 76.1974 45.6143 76.286C45.7785 76.3782 45.9633 76.4271 46.1515 76.4283C46.286 76.4342 46.4201 76.4103 46.5442 76.3582C46.6684 76.3061 46.7795 76.2272 46.8697 76.127C47.0584 75.9085 47.1579 75.6265 47.148 75.3377V72.7465H47.8662V75.4046C47.8626 75.5597 47.8383 75.7135 47.7938 75.8621ZM43.5378 72.2751V71.4383H44.3116V72.2751H43.5378ZM44.3283 70.8972V70.0967H45.0604V70.8972H44.3283ZM45.0854 72.2751V71.4383H45.8592V72.2751H45.0854Z" fill="white"/>
<path d="M53.0964 73.1818V77.0672H48.9211C48.9083 77.0683 48.8955 77.0658 48.8841 77.0599C48.8728 77.0539 48.8634 77.0449 48.857 77.0337C48.8482 77.0193 48.8425 77.0031 48.8403 76.9863V76.4982C48.8411 76.4793 48.8469 76.4611 48.857 76.4452C48.8641 76.4351 48.8738 76.4271 48.8851 76.4222C48.8964 76.4173 48.9089 76.4156 48.9211 76.4173H50.246C50.0249 76.2704 49.8479 76.066 49.7339 75.826C49.6123 75.57 49.5513 75.2894 49.5557 75.0059C49.555 74.657 49.6462 74.3141 49.8202 74.0119C49.9942 73.7097 50.2448 73.4589 50.5467 73.285C50.8862 73.0939 51.2707 72.9975 51.6601 73.006C52.1431 73.0214 52.6238 73.0802 53.0964 73.1818ZM50.6664 74.0604C50.4254 74.3499 50.2995 74.7184 50.3128 75.0952C50.3112 75.3231 50.3647 75.548 50.4687 75.7507C50.5726 75.9504 50.7296 76.1175 50.9224 76.2332C51.1342 76.3597 51.3774 76.4235 51.6239 76.4173H52.381V73.7508C52.1377 73.6904 51.8884 73.6576 51.6378 73.6531C51.4558 73.644 51.2741 73.6758 51.1059 73.7462C50.9378 73.8167 50.7876 73.9241 50.6664 74.0604ZM51.1785 72.2753V71.4385H51.9524V72.2753H51.1785Z" fill="white"/>
<path d="M57.5167 73.1397L57.7478 73.1815V77.0251C57.7644 77.2706 57.731 77.5168 57.6497 77.7489C57.5683 77.981 57.4407 78.1941 57.2746 78.3751C56.8762 78.7235 56.3806 78.9406 55.855 78.9971L55.5571 78.3473C55.9561 78.3093 56.339 78.1712 56.6705 77.9456C56.795 77.8376 56.8923 77.7018 56.9547 77.5492C57.017 77.3966 57.0427 77.2314 57.0296 77.067V73.7422C56.7894 73.6867 56.544 73.6568 56.2975 73.6529C56.1142 73.6427 55.9309 73.6739 55.7612 73.7444C55.5916 73.8149 55.44 73.9229 55.3177 74.0602C55.0748 74.3488 54.9478 74.7177 54.9614 75.095C54.9531 75.439 55.0743 75.7736 55.301 76.0322C55.4206 76.1625 55.5674 76.2646 55.7311 76.3311C55.8947 76.3977 56.0711 76.427 56.2474 76.4171H56.7652L56.4868 77.067H56.2085C55.8341 77.075 55.465 76.9785 55.1424 76.788C54.8497 76.6127 54.6131 76.3572 54.4604 76.0517C54.3007 75.7384 54.2195 75.3909 54.2238 75.0392C54.2218 74.6878 54.308 74.3416 54.4743 74.0323C54.6438 73.7163 54.8984 73.4545 55.2092 73.2764C55.5538 73.0827 55.9443 72.9863 56.3393 72.9974C56.7352 73.0094 57.1293 73.057 57.5167 73.1397Z" fill="white"/>
<path d="M59.1396 77.067V70.7466H59.855V77.067H59.1396Z" fill="white"/>
<path d="M69.7029 76.0768V72.8524H69.0933C68.9103 72.8378 68.7263 72.8634 68.5542 72.9275C68.382 72.9916 68.2259 73.0926 68.0968 73.2234C67.8738 73.4812 67.7564 73.814 67.7684 74.155V77.0669H65.1713C64.6653 77.0969 64.1672 76.9312 63.7795 76.6039C63.6097 76.4477 63.4761 76.2562 63.3881 76.0427C63.3001 75.8292 63.2598 75.599 63.2701 75.3683V72.9751H63.9855V75.3097C63.9803 75.4582 64.0066 75.6061 64.0628 75.7436C64.1189 75.8812 64.2036 76.0052 64.3112 76.1074C64.5923 76.3353 64.9501 76.4462 65.3105 76.417H67.0474V74.0964C67.0429 73.7595 67.1223 73.4269 67.2785 73.1285C67.429 72.8423 67.6591 72.6059 67.9409 72.4479C68.2501 72.2776 68.5986 72.192 68.9514 72.1997H70.4155V76.0768H69.7029ZM64.8122 78.8325V77.9958H65.586V78.8325H64.8122ZM66.3599 78.8325V77.9958H67.1337V78.8325H66.3599Z" fill="white"/>
<path d="M72.6591 77.4882L72.5338 77.9094C72.4109 77.8716 72.2837 77.8491 72.1553 77.8424C72.092 77.8424 72.0301 77.8608 71.9771 77.8954C71.951 77.915 71.9301 77.9408 71.9165 77.9705C71.9029 78.0003 71.8969 78.0329 71.8992 78.0656C71.8967 78.1099 71.9063 78.154 71.9269 78.1933C71.9475 78.2326 71.9783 78.2656 72.0161 78.2887H72.7732V78.7183H71.1504L71.2673 78.2887H71.5735C71.5228 78.1942 71.4952 78.0891 71.4928 77.9819C71.4872 77.8217 71.5441 77.6656 71.6515 77.5468C71.7093 77.4874 71.7793 77.4411 71.8567 77.4113C71.934 77.3815 72.0169 77.3687 72.0996 77.3738C72.2909 77.3824 72.4797 77.421 72.6591 77.4882ZM71.7851 77.0587V70.7466H72.5004V77.067L71.7851 77.0587Z" fill="white"/>
<path d="M82.3486 76.0769V72.8525H81.739C81.556 72.8379 81.372 72.8635 81.1999 72.9276C81.0277 72.9917 80.8716 73.0926 80.7425 73.2235C80.5195 73.4812 80.4021 73.8141 80.4141 74.1551V77.067H77.8114C77.3054 77.097 76.8073 76.9313 76.4196 76.604C76.2498 76.4478 76.1163 76.2563 76.0283 76.0428C75.9403 75.8293 75.9 75.5991 75.9103 75.3684V72.9752H76.6256V75.3098C76.6204 75.4583 76.6468 75.6062 76.7029 75.7437C76.7591 75.8813 76.8437 76.0053 76.9513 76.1075C77.2324 76.3354 77.5902 76.4463 77.9506 76.4171H79.6876V74.0965C79.683 73.7596 79.7624 73.427 79.9186 73.1286C80.0691 72.8424 80.2992 72.606 80.5811 72.448C80.8901 72.2736 81.2396 72.1841 81.5943 72.1886H83.0584V76.0657L82.3486 76.0769ZM77.4579 78.8326V77.9959H78.2317V78.8326H77.4579ZM79.0056 78.8326V77.9959H79.7794V78.8326H79.0056Z" fill="white"/>
<path d="M87.4789 76.713C86.9612 76.951 86.1623 77.0691 85.0823 77.0672H84.044L83.7656 76.4173H85.1574C85.7505 76.4287 86.3427 76.364 86.9194 76.2249L85.6696 73.0005H86.4267L87.6932 76.25L87.4789 76.713Z" fill="white"/>
<path d="M92.6645 78.5371C92.1587 78.5657 91.6611 78.4001 91.2728 78.0741C91.1027 77.9175 90.969 77.7255 90.881 77.5115C90.793 77.2975 90.7528 77.0669 90.7634 76.8357V75.0143H91.4787V76.7799C91.474 76.929 91.5008 77.0774 91.5574 77.2154C91.6141 77.3534 91.6992 77.4778 91.8072 77.5804C92.0863 77.8102 92.4437 77.9222 92.8037 77.8928H94.1203V73.0842H94.8357V78.5371H92.6645ZM92.3277 72.9837V72.147H93.1015V72.9837H92.3277Z" fill="white"/>
<path d="M96.2217 77.067V70.7466H96.937V77.067H96.2217Z" fill="white"/>
<path d="M100.049 74.8804V74.1636H102.471V74.8804H100.049Z" fill="white"/>
<path d="M112.823 76.2413C112.892 76.3045 112.974 76.3526 113.062 76.3829C113.151 76.4131 113.245 76.4247 113.338 76.417H113.502C113.515 76.4151 113.528 76.4167 113.54 76.4216C113.551 76.4265 113.562 76.4346 113.569 76.4449C113.579 76.4608 113.585 76.4791 113.586 76.4979V76.9861C113.585 77.0048 113.579 77.023 113.569 77.039C113.562 77.0494 113.551 77.0575 113.54 77.0624C113.528 77.0673 113.515 77.0689 113.502 77.0669H113.207C113.03 77.0811 112.852 77.0552 112.686 76.991C112.52 76.9267 112.371 76.8259 112.25 76.696C112.032 76.4199 111.921 76.0741 111.938 75.7225V72.8524H111.328C111.145 72.8378 110.961 72.8634 110.789 72.9275C110.617 72.9916 110.461 73.0926 110.332 73.2234C110.109 73.4812 109.991 73.814 110.003 74.155V77.0669H107.401C106.895 77.0963 106.397 76.9307 106.009 76.6039C105.839 76.4477 105.706 76.2562 105.618 76.0427C105.53 75.8292 105.489 75.599 105.5 75.3683V72.9751H106.215V75.3097C106.21 75.4582 106.236 75.6061 106.292 75.7436C106.348 75.8812 106.433 76.0052 106.541 76.1074C106.822 76.3353 107.18 76.4462 107.54 76.417H109.28V74.0964C109.274 73.7598 109.353 73.4271 109.508 73.1285C109.659 72.8419 109.89 72.6054 110.173 72.4479C110.481 72.2776 110.829 72.192 111.181 72.1997H112.645V75.6723C112.629 75.8779 112.693 76.0819 112.823 76.2413Z" fill="white"/>
<path d="M115.348 75.8706C115.445 76.0532 115.593 76.2034 115.774 76.3026C115.955 76.4017 116.161 76.4455 116.367 76.4285C116.379 76.4265 116.392 76.4281 116.404 76.433C116.416 76.4379 116.426 76.446 116.433 76.4564C116.444 76.4722 116.449 76.4905 116.45 76.5093V76.9975C116.449 77.0162 116.443 77.0344 116.433 77.0505C116.426 77.0608 116.416 77.0689 116.404 77.0738C116.392 77.0787 116.379 77.0803 116.367 77.0784C116.117 77.0807 115.871 77.0235 115.647 76.9114C115.424 76.7994 115.231 76.6358 115.083 76.434C114.939 76.639 114.746 76.8051 114.523 76.9176C114.299 77.03 114.051 77.0852 113.8 77.0784H113.502C113.49 77.0803 113.477 77.0787 113.465 77.0738C113.453 77.0689 113.443 77.0608 113.436 77.0505C113.426 77.0344 113.42 77.0162 113.419 76.9975V76.5093C113.42 76.4905 113.425 76.4722 113.436 76.4564C113.443 76.446 113.453 76.4379 113.465 76.433C113.477 76.4281 113.49 76.4265 113.502 76.4285H113.667C113.805 76.4332 113.943 76.408 114.071 76.3546C114.198 76.3012 114.313 76.2208 114.407 76.1189C114.598 75.9049 114.698 75.6246 114.685 75.3379V73.1064H115.401V75.416C115.405 75.5692 115.387 75.7223 115.348 75.8706ZM114.655 72.2753V71.4385H115.429V72.2753H114.655Z" fill="white"/>
<path d="M119.646 73.455C120.013 73.7818 120.293 74.1962 120.458 74.66L120.912 75.798C121.06 76.1773 121.396 76.3893 121.917 76.4312L121.639 77.0671C121.417 77.0564 121.201 76.9986 121.004 76.8976C120.806 76.7966 120.633 76.6547 120.495 76.4814C120.113 76.6757 119.708 76.8209 119.289 76.9137C118.87 77.0138 118.44 77.0652 118.009 77.0671H116.369C116.356 77.0686 116.344 77.0663 116.332 77.0603C116.321 77.0543 116.311 77.045 116.305 77.0336C116.296 77.0192 116.291 77.003 116.289 76.9862V76.4981C116.289 76.4793 116.295 76.461 116.305 76.4451C116.305 76.4256 116.336 76.4172 116.369 76.4172H118.009C118.769 76.426 119.524 76.2936 120.236 76.0267L120.211 75.9709L119.749 74.8552C119.621 74.5164 119.407 74.2171 119.128 73.9878C118.847 73.7922 118.509 73.6943 118.167 73.7089C117.82 73.7165 117.48 73.8125 117.179 73.9878L116.901 73.3853C117.124 73.2725 117.355 73.1792 117.594 73.1064C117.838 73.0439 118.089 73.0148 118.34 73.0199C118.814 72.9992 119.279 73.1541 119.646 73.455ZM118.059 78.8327V77.9959H118.833V78.8327H118.059Z" fill="white"/>
<path d="M174.348 48.7643C176.365 48.7643 178 47.1259 178 45.1048C178 43.0837 176.365 41.4453 174.348 41.4453C172.331 41.4453 170.696 43.0837 170.696 45.1048C170.696 47.1259 172.331 48.7643 174.348 48.7643Z" fill="white"/>
<path d="M15.3763 0.362793V33.9259C15.3763 43.85 11.6129 44.6784 7.75767 44.6784C6.12306 44.6826 4.50081 44.3945 2.96718 43.8277L1.42787 43.2308L-0.0112305 51.0825L1.00755 51.4981C2.82243 52.2429 5.80083 52.7617 8.24479 52.7617C18.942 52.7617 24.3644 46.5946 24.3644 34.4335V0.362793H15.3763Z" fill="white"/>
<path d="M54.1596 0.362793H44.6175L27.1201 51.9639H36.5007L41.564 36.5868H56.9153L62.1261 51.9639H71.721L54.1596 0.362793ZM54.6968 28.9554H43.7853L47.9606 16.5795C48.3781 15.2546 48.7957 13.8739 49.2048 12.3789C49.589 13.7735 50.0176 15.1877 50.5242 16.6771L54.6968 28.9554Z" fill="white"/>
<path d="M112.77 6.45433C108.119 2.11146 101.358 0 92.0886 0C87.5377 0.0029605 82.9934 0.346999 78.4937 1.02923L77.3413 1.20496V51.6737L78.5438 51.8104C82.3935 52.221 86.2631 52.4165 90.1345 52.3961C100.019 52.3961 107.807 49.8272 112.654 44.9739C117.511 40.182 120.08 33.2758 120.08 25.0001C120.083 17.1483 117.619 10.906 112.77 6.45433ZM110.783 25.2204C110.783 31.446 109.113 36.2798 105.839 39.5823C102.566 42.8848 97.6585 44.6029 91.3649 44.6029C89.9063 44.6029 87.9411 44.5806 86.3545 44.4161V8.13904C88.349 7.83994 90.3642 7.70004 92.3809 7.72065C98.5381 7.72065 103.237 9.32168 106.382 12.4847C109.338 15.4636 110.822 19.7507 110.786 25.2204H110.783Z" fill="white"/>
<path d="M133.747 43.9532V29.0447H152.711V21.1065H133.747V8.37353H153.794V0.362793H124.739V51.964H154.882V43.9532H133.747Z" fill="white"/>
<path d="M176.951 27.4573C176.825 23.7029 175.559 20.4256 174.752 17.1956C174.381 15.7257 173.964 14.2195 173.546 12.8193C173.164 11.3796 172.936 9.90316 172.867 8.41504C172.863 7.24034 172.991 6.06894 173.248 4.92289C173.473 3.81675 173.967 2.78312 174.685 1.91329C174.946 1.60368 176.188 0.181165 176.299 0.1979C174.434 0.38478 173.733 0.88964 172.681 1.68458C171.417 2.64129 170.732 4.08891 170.398 5.60627C170.288 6.08856 170.22 6.57942 170.195 7.07341C170.156 7.53717 170.143 8.00285 170.159 8.46803C170.284 12.2252 171.534 15.4997 172.355 18.7325C173.19 21.7616 174.161 24.6875 174.234 27.5131C174.24 28.6877 174.113 29.8593 173.855 31.0052C173.629 32.1118 173.136 33.146 172.419 34.0176C172.155 34.3244 170.916 35.7469 170.805 35.7302C172.669 35.5461 173.368 35.0385 174.423 34.2435C175.687 33.2868 176.372 31.8392 176.706 30.3218C176.818 29.841 176.886 29.3508 176.909 28.8575C176.95 28.392 176.964 27.9244 176.951 27.4573Z" fill="white"/>
<path d="M167.328 35.9616C168.163 32.7289 169.399 29.4515 169.524 25.6972C169.54 25.2273 169.528 24.757 169.488 24.2886C169.46 23.7934 169.389 23.3016 169.277 22.8187C168.94 21.3013 168.258 19.8537 166.994 18.897C165.942 18.102 165.24 17.5972 163.375 17.4103C163.487 17.3936 164.728 18.8049 164.99 19.1229C165.707 19.9941 166.201 21.0285 166.426 22.1353C166.684 23.2813 166.812 24.4527 166.808 25.6274C166.741 27.09 166.519 28.5412 166.145 29.9564C165.736 31.3343 165.329 32.8098 164.965 34.249C164.144 37.479 162.894 40.7563 162.769 44.5107C162.753 44.9759 162.765 45.4415 162.805 45.9053C162.83 46.3993 162.898 46.8901 163.008 47.3725C163.345 48.887 164.027 50.3374 165.29 51.2774C166.343 52.0751 167.044 52.58 168.909 52.7669C168.798 52.7808 167.556 51.3583 167.295 51.0515C166.577 50.1813 166.084 49.1478 165.858 48.0419C165.607 46.9036 165.482 45.7407 165.488 44.5748C165.56 41.7995 166.504 38.9238 167.325 35.9533L167.328 35.9616Z" fill="white"/>
</g>
<defs>
<clipPath id="clip0_64_1168">
<rect width="178" height="79" fill="white"/>
</clipPath>
</defs>
</svg>
