<svg width="46" height="47" viewBox="0 0 46 47" fill="none" xmlns="http://www.w3.org/2000/svg">
<path d="M23 1.9375C18.7353 1.9375 14.5665 3.20212 11.0205 5.57144C7.47459 7.94075 4.71087 11.3084 3.07886 15.2484C1.44684 19.1884 1.01983 23.5239 1.85183 27.7066C2.68382 31.8894 4.73745 35.7314 7.75302 38.747C10.7686 41.7626 14.6107 43.8162 18.7934 44.6482C22.9761 45.4802 27.3116 45.0532 31.2516 43.4212C35.1917 41.7891 38.5593 39.0254 40.9286 35.4795C43.2979 31.9335 44.5625 27.7647 44.5625 23.5C44.5562 17.7832 42.2825 12.3023 38.2401 8.25994C34.1977 4.21755 28.7168 1.94378 23 1.9375ZM8.93551 18.0109C8.90208 18.1 8.85129 18.1816 8.78607 18.251C8.72085 18.3203 8.6425 18.376 8.55559 18.4148C8.46867 18.4536 8.37491 18.4748 8.27975 18.4771C8.18459 18.4793 8.08992 18.4627 8.00124 18.4281C7.91257 18.3935 7.83165 18.3416 7.76318 18.2755C7.69472 18.2093 7.64007 18.1303 7.60242 18.0428C7.56476 17.9554 7.54484 17.8614 7.54382 17.7662C7.5428 17.671 7.5607 17.5766 7.59648 17.4884C8.43079 15.3602 9.69581 13.4274 11.3122 11.8111C12.9286 10.1948 14.8616 8.92989 16.9898 8.09575C17.078 8.05997 17.1725 8.04208 17.2677 8.0431C17.3628 8.04411 17.4569 8.06403 17.5443 8.10169C17.6317 8.13934 17.7108 8.19399 17.7769 8.26245C17.8431 8.33092 17.8949 8.41184 17.9295 8.50052C17.9641 8.58919 17.9808 8.68386 17.9785 8.77902C17.9762 8.87418 17.9551 8.96794 17.9163 9.05486C17.8774 9.14178 17.8217 9.22012 17.7524 9.28534C17.6831 9.35056 17.6015 9.40135 17.5124 9.43478C15.5691 10.1963 13.8041 11.3512 12.3282 12.827C10.8523 14.3028 9.69722 16.0677 8.93551 18.0109ZM23 29.25C21.8628 29.25 20.7511 28.9128 19.8055 28.281C18.8599 27.6491 18.1229 26.7511 17.6877 25.7004C17.2525 24.6498 17.1386 23.4936 17.3605 22.3782C17.5824 21.2628 18.13 20.2383 18.9341 19.4341C19.7383 18.63 20.7628 18.0823 21.8782 17.8605C22.9936 17.6386 24.1498 17.7525 25.2004 18.1877C26.2511 18.6229 27.1491 19.3599 27.781 20.3055C28.4128 21.2511 28.75 22.3628 28.75 23.5C28.75 25.025 28.1442 26.4875 27.0659 27.5659C25.9875 28.6442 24.525 29.25 23 29.25Z" fill="black"/>
</svg>
