<svg width="46" height="46" viewBox="0 0 46 46" fill="none" xmlns="http://www.w3.org/2000/svg">
<path d="M41.1125 17.7407L30.825 11.241C30.2056 10.8467 29.4953 10.6182 28.7621 10.5774C28.029 10.5366 27.2976 10.685 26.6383 11.0082L18.2563 15.0784C18.8102 16.4302 18.8283 17.9422 18.3071 19.3068C17.7858 20.6715 16.7642 21.7863 15.4502 22.4245C14.1361 23.0627 12.6283 23.1764 11.2334 22.7423C9.83857 22.3083 8.66143 21.3592 7.94148 20.0881L5.30367 21.3704C4.57738 21.7262 3.96507 22.2779 3.5359 22.9634C3.10673 23.6489 2.87781 24.4407 2.87501 25.2495V30.3627C2.87329 31.0913 3.05714 31.8084 3.40923 32.4463C3.76133 33.0842 4.27008 33.622 4.88751 34.0089L15.175 40.5085C15.7945 40.9027 16.5048 41.1311 17.2379 41.1718C17.971 41.2126 18.7023 41.0644 19.3617 40.7414L40.6964 30.3792C41.4226 30.0234 42.035 29.4716 42.4641 28.7861C42.8933 28.1007 43.1222 27.3088 43.125 26.5001V21.3869C43.1267 20.6583 42.9429 19.9412 42.5908 19.3033C42.2387 18.6653 41.7299 18.1276 41.1125 17.7407ZM38.405 22.1466L19.3581 31.3977C18.6987 31.7207 17.9674 31.8689 17.2343 31.8281C16.5012 31.7873 15.7909 31.5589 15.1714 31.1648L7.52245 26.3312C7.4426 26.2808 7.37346 26.2152 7.31897 26.138C7.26449 26.0609 7.22572 25.9738 7.2049 25.8817C7.18408 25.7896 7.1816 25.6943 7.19761 25.6012C7.21362 25.5082 7.2478 25.4192 7.2982 25.3393C7.3486 25.2595 7.41424 25.1903 7.49136 25.1358C7.56849 25.0814 7.65559 25.0426 7.74769 25.0218C7.8398 25.0009 7.9351 24.9985 8.02816 25.0145C8.12123 25.0305 8.21022 25.0647 8.29008 25.1151L15.9433 29.9494C16.3561 30.2122 16.8295 30.3644 17.3181 30.3916C17.8067 30.4188 18.2941 30.32 18.7335 30.1046L37.7804 20.8543C37.952 20.771 38.1496 20.7593 38.3298 20.8217C38.419 20.8526 38.5013 20.9008 38.5719 20.9635C38.6425 21.0262 38.7001 21.1022 38.7414 21.1871C38.7826 21.272 38.8067 21.3643 38.8123 21.4586C38.8179 21.5528 38.8049 21.6473 38.774 21.7365C38.7431 21.8257 38.6949 21.908 38.6322 21.9786C38.5695 22.0492 38.4935 22.1068 38.4086 22.1481L38.405 22.1466Z" fill="black"/>
<path d="M15.4531 8.625C14.9556 8.625 14.4692 8.47746 14.0555 8.20104C13.6418 7.92462 13.3194 7.53173 13.129 7.07206C12.9386 6.61239 12.8888 6.10659 12.9858 5.6186C13.0829 5.13062 13.3225 4.68238 13.6743 4.33056C14.0261 3.97874 14.4744 3.73915 14.9624 3.64209C15.4503 3.54502 15.9561 3.59484 16.4158 3.78524C16.8755 3.97564 17.2684 4.29808 17.5448 4.71177C17.8212 5.12546 17.9688 5.61183 17.9688 6.10938C17.9688 6.77656 17.7037 7.41642 17.2319 7.88819C16.7602 8.35996 16.1203 8.625 15.4531 8.625Z" fill="black"/>
<path d="M26.0102 9.71611C26.8893 9.286 27.8641 9.08857 28.8414 9.14268C29.8186 9.19679 30.7657 9.50063 31.592 10.0252L37.5576 13.7929C38.2184 12.2273 38.2717 10.4716 37.707 8.86884C37.1424 7.26609 36.0004 5.93148 34.5042 5.12581C33.008 4.32014 31.2652 4.10131 29.6163 4.51208C27.9674 4.92285 26.5309 5.93371 25.5875 7.34711C25.2134 7.24118 24.8264 7.18749 24.4375 7.18755C23.7844 7.18514 23.1392 7.33168 22.5512 7.61603C21.9632 7.90038 21.4477 8.31506 21.044 8.82853C20.6403 9.34201 20.3589 9.94077 20.2214 10.5793C20.0838 11.2178 20.0936 11.8793 20.2501 12.5135L26.0102 9.71611Z" fill="black"/>
<path d="M12.9375 21.5625C12.0846 21.5625 11.2508 21.3096 10.5416 20.8357C9.83242 20.3619 9.27967 19.6883 8.95327 18.9003C8.62687 18.1123 8.54147 17.2452 8.70787 16.4087C8.87426 15.5721 9.28499 14.8037 9.8881 14.2006C10.4912 13.5975 11.2596 13.1868 12.0962 13.0204C12.9327 12.854 13.7998 12.9394 14.5878 13.2658C15.3758 13.5922 16.0493 14.1449 16.5232 14.8541C16.9971 15.5633 17.25 16.3971 17.25 17.25C17.2489 18.3934 16.7941 19.4896 15.9856 20.2981C15.1771 21.1066 14.0809 21.5614 12.9375 21.5625Z" fill="black"/>
</svg>
